<svg xmlns="http://www.w3.org/2000/svg" xmlns:xlink="http://www.w3.org/1999/xlink" viewBox="0,0,256,256" width="150px" height="150px" fill-rule="nonzero"><g fill="#ffffff" fill-rule="nonzero" stroke="none" stroke-width="1" stroke-linecap="butt" stroke-linejoin="miter" stroke-miterlimit="10" stroke-dasharray="" stroke-dashoffset="0" font-family="none" font-weight="none" font-size="none" text-anchor="none" style="mix-blend-mode: normal"><g transform="scale(5.12,5.12)"><path d="M43.55,22.65h-0.09v-2.28c0,-8.37 -6.81,-15.18 -15.19,-15.18c-6.15,0 -11.64,3.7 -13.99,9.3c-1.1,-0.38 -2.27,-0.57 -3.46,-0.57c-5.97,0 -10.82,4.85 -10.82,10.82c0,5.96 4.85,10.82 10.82,10.82l6.536,-0.011c0.469,2.594 2.734,4.563 5.463,4.563c3.069,0 5.556,-2.488 5.556,-5.556c0,-3.068 -2.487,-5.556 -5.556,-5.556c-0.232,0 -0.46,0.019 -0.685,0.047l-0.395,-1.973c0.481,-0.094 0.974,-0.146 1.469,-0.146c4.219,0 7.651,3.433 7.651,7.651c0,4.218 -3.432,7.65 -7.651,7.65c-0.996,0 -1.962,-0.188 -2.874,-0.558l-0.752,1.854c1.151,0.467 2.371,0.704 3.625,0.704c5.001,0 9.124,-3.824 9.603,-8.701l10.09,-0.008c0.22,0.02 0.43,0.04 0.65,0.04c3.56,0 6.45,-2.9 6.45,-6.46c0,-3.56 -2.89,-6.45 -6.45,-6.45z"></path></g></g></svg>